<?xml version="1.0" standalone="no"?>
<!DOCTYPE svg PUBLIC "-//W3C//DTD SVG 20010904//EN"
 "http://www.w3.org/TR/2001/REC-SVG-20010904/DTD/svg10.dtd">
<svg version="1.0" xmlns="http://www.w3.org/2000/svg"
 width="1820.000000pt" height="1820.000000pt" viewBox="0 0 1820.000000 1820.000000"
 preserveAspectRatio="xMidYMid meet">

<g transform="translate(0.000000,1820.000000) scale(0.100000,-0.100000)"
stroke="none">
<path d="M8690 17479 c-252 -15 -434 -30 -477 -40 -41 -9 -169 -29 -317 -49
-38 -6 -83 -14 -100 -19 -17 -5 -76 -17 -131 -26 -55 -9 -114 -20 -131 -26
-16 -5 -50 -13 -75 -18 -65 -14 -207 -49 -265 -66 -28 -8 -60 -15 -72 -15 -11
0 -23 -4 -26 -9 -3 -5 -18 -12 -33 -15 -59 -14 -293 -89 -396 -128 -59 -22
-124 -44 -145 -49 -20 -6 -69 -26 -109 -45 -39 -19 -76 -34 -81 -34 -16 0
-153 -61 -352 -158 -253 -122 -362 -178 -435 -224 -22 -13 -47 -28 -55 -31 -8
-4 -31 -17 -50 -28 -19 -12 -49 -29 -65 -38 -17 -9 -44 -26 -60 -37 -17 -12
-46 -30 -65 -40 -57 -31 -329 -216 -471 -322 -85 -63 -315 -246 -337 -269 -8
-7 -30 -26 -50 -41 -20 -15 -51 -40 -68 -57 -18 -16 -67 -61 -110 -100 -105
-95 -403 -392 -491 -490 -208 -233 -346 -403 -520 -640 -30 -42 -176 -253
-188 -274 -5 -9 -40 -64 -77 -122 -38 -58 -68 -109 -68 -113 0 -4 -10 -22 -23
-39 -28 -41 -39 -59 -78 -132 -17 -33 -35 -65 -40 -70 -25 -33 -253 -499 -304
-625 -15 -36 -31 -69 -35 -75 -4 -5 -13 -28 -20 -50 -10 -33 -48 -131 -90
-230 -5 -11 -18 -51 -30 -90 -12 -38 -25 -79 -30 -90 -12 -30 -66 -194 -78
-240 -38 -136 -46 -164 -58 -198 -8 -20 -14 -48 -14 -62 0 -13 -4 -26 -9 -29
-4 -3 -11 -25 -15 -48 -8 -56 -24 -130 -41 -193 -15 -57 -39 -171 -55 -260
-35 -199 -32 -177 -55 -385 -9 -74 -20 -169 -26 -210 -9 -71 -22 -831 -19
-1085 1 -66 6 -165 11 -220 5 -55 13 -150 19 -211 5 -61 12 -118 15 -126 3 -7
10 -52 15 -98 5 -47 16 -123 24 -170 8 -47 19 -112 24 -145 11 -62 22 -116 42
-195 13 -50 23 -97 39 -185 7 -33 16 -69 21 -80 5 -11 14 -38 19 -60 36 -151
139 -484 190 -615 10 -25 24 -61 31 -80 37 -102 84 -221 105 -265 43 -89 85
-187 85 -196 0 -6 7 -20 14 -32 8 -12 56 -105 105 -205 50 -101 99 -198 110
-215 10 -18 31 -54 46 -82 15 -27 37 -66 49 -86 11 -20 36 -63 55 -95 47 -81
123 -201 195 -310 52 -77 251 -351 285 -390 14 -16 37 -45 51 -64 14 -18 42
-54 63 -78 21 -25 62 -75 91 -111 119 -148 451 -496 603 -631 22 -19 82 -73
134 -120 100 -90 158 -139 252 -215 32 -25 66 -53 75 -61 15 -14 39 -31 135
-102 18 -13 43 -33 57 -45 14 -12 65 -49 115 -82 49 -33 98 -68 107 -78 10 -9
23 -17 28 -17 6 0 43 -22 83 -49 111 -75 255 -164 332 -206 39 -20 75 -41 80
-45 6 -5 55 -32 110 -61 55 -29 127 -67 160 -86 33 -18 71 -37 85 -43 48 -20
87 -38 260 -118 47 -22 96 -43 110 -47 14 -4 48 -18 75 -30 86 -39 183 -75
202 -75 11 0 23 -4 29 -9 20 -20 440 -161 480 -161 11 0 24 -4 30 -9 8 -9 49
-21 124 -38 14 -3 66 -17 115 -30 103 -28 184 -46 305 -68 47 -8 117 -22 155
-30 61 -12 112 -21 225 -40 14 -2 83 -12 154 -21 75 -10 134 -23 142 -32 11
-11 14 -68 14 -295 0 -834 6 -1354 17 -1382 6 -16 18 -53 27 -81 27 -87 96
-194 181 -281 44 -46 85 -83 91 -83 6 0 17 -7 24 -15 18 -21 136 -79 200 -98
65 -19 235 -48 252 -43 7 2 47 10 88 16 84 14 229 59 306 96 28 13 56 24 62
24 12 0 67 23 122 50 19 10 73 34 120 53 98 41 229 101 403 187 68 33 128 60
133 60 5 0 33 16 63 35 29 19 57 35 62 35 5 0 35 14 66 31 32 18 101 54 153
81 52 28 100 53 105 58 8 6 70 40 170 94 11 6 99 58 195 115 150 89 201 121
322 196 33 21 173 115 183 122 6 5 78 54 162 110 84 56 174 119 202 140 27 21
93 70 146 108 54 39 116 85 138 103 22 18 49 38 61 44 12 6 26 17 31 23 6 7
39 34 75 60 131 98 302 242 605 509 196 173 605 580 783 781 59 66 109 122
113 125 6 5 121 139 181 211 49 59 141 172 150 184 5 6 38 49 76 98 141 183
235 314 378 527 54 80 102 147 106 148 4 2 8 8 8 13 0 5 16 31 34 57 19 26 44
68 56 92 25 54 54 105 67 122 25 31 93 168 93 186 0 11 16 43 35 71 19 28 35
53 35 57 0 4 18 33 40 65 22 32 40 61 40 63 0 3 14 29 31 58 33 54 185 355
211 418 9 19 23 55 34 80 10 25 23 52 29 60 6 8 19 40 30 70 10 30 29 77 42
104 12 28 23 54 23 59 0 5 7 25 16 45 9 21 20 46 24 57 4 11 13 34 20 50 6 17
18 50 27 75 8 25 27 77 43 115 15 39 36 99 46 135 10 36 21 70 25 75 8 11 40
115 99 325 12 41 30 100 41 132 10 32 19 65 19 74 0 10 4 31 9 48 23 75 97
382 104 431 2 17 13 75 25 130 11 55 23 126 27 157 3 32 11 60 16 63 5 4 9 25
9 48 1 23 5 62 11 87 6 25 12 68 15 95 2 28 8 79 14 115 17 117 30 233 40 360
5 69 14 150 20 180 5 30 10 168 10 305 1 329 -10 996 -17 1015 -3 8 -5 39 -3
68 1 29 -3 59 -9 66 -6 7 -11 30 -11 52 1 84 -23 310 -33 323 -6 7 -12 41 -13
75 -1 33 -4 79 -8 101 -9 49 -44 207 -56 255 -6 19 -14 60 -20 90 -17 95 -30
153 -40 184 -5 17 -19 65 -31 106 -12 41 -25 79 -30 85 -5 5 -9 23 -9 40 0 18
-3 35 -7 39 -4 4 -13 31 -19 59 -17 71 -109 341 -138 402 -14 28 -27 61 -31
75 -8 33 -53 148 -70 180 -14 27 -78 190 -90 230 -4 14 -15 36 -25 50 -10 14
-30 49 -46 79 -40 75 -49 88 -67 109 -9 9 -66 116 -127 237 -61 121 -115 227
-120 235 -5 8 -41 67 -79 130 -39 63 -103 162 -143 219 -40 56 -87 124 -105
150 -18 25 -36 51 -41 57 -5 5 -29 37 -53 70 -72 97 -213 271 -323 398 -60 69
-270 296 -381 410 -9 9 -72 67 -270 250 -43 39 -181 156 -254 215 -23 19 -54
44 -69 57 -48 41 -116 93 -157 121 -22 15 -51 37 -65 49 -14 12 -61 47 -105
76 -44 30 -104 71 -132 91 -29 20 -56 37 -60 37 -5 0 -20 10 -34 23 -15 12
-45 33 -68 47 -23 14 -75 46 -116 73 -41 26 -77 47 -81 47 -3 0 -20 10 -37 23
-18 12 -48 30 -67 39 -19 10 -84 44 -145 78 -122 66 -227 119 -355 178 -47 22
-110 51 -141 66 -85 40 -292 124 -409 166 -58 21 -130 48 -160 58 -30 11 -116
39 -190 62 -74 23 -151 48 -170 55 -19 8 -51 17 -70 20 -19 4 -48 11 -65 16
-16 5 -68 18 -115 30 -47 11 -112 28 -145 36 -33 8 -80 18 -105 22 -25 5 -76
14 -115 20 -38 7 -90 18 -115 26 -25 7 -70 16 -100 19 -30 3 -98 12 -150 21
-52 8 -151 19 -219 25 -68 6 -129 14 -135 17 -32 20 -855 37 -1096 22z m-2453
-4243 c21 -7 63 -19 93 -26 46 -11 110 -40 230 -106 57 -31 176 -142 241 -224
76 -95 134 -215 169 -343 17 -65 21 -108 21 -245 0 -146 -3 -179 -24 -258 -45
-166 -157 -351 -272 -449 -26 -22 -59 -50 -74 -62 -14 -13 -29 -23 -33 -23 -4
0 -13 -6 -20 -13 -7 -7 -42 -28 -78 -47 -96 -49 -98 -50 -114 -50 -7 0 -27 -7
-42 -15 -16 -8 -39 -15 -52 -15 -12 0 -39 -7 -60 -16 -54 -23 -274 -24 -367 0
-223 55 -383 143 -510 278 -69 73 -105 116 -105 124 0 3 -11 20 -24 37 -31 42
-83 157 -104 227 -30 102 -35 136 -39 260 -5 137 9 236 43 317 8 17 14 35 14
40 0 28 120 242 157 281 7 7 18 21 25 30 16 21 131 120 174 149 49 35 196 109
239 121 22 7 63 18 90 26 69 20 369 22 422 2z m3127 -11 c237 -62 442 -211
573 -420 34 -54 93 -178 111 -235 20 -60 42 -202 42 -271 0 -90 -25 -242 -50
-309 -12 -30 -27 -71 -34 -90 -59 -156 -238 -356 -401 -446 -93 -51 -130 -66
-250 -98 -108 -28 -213 -37 -315 -26 -119 14 -260 49 -285 71 -5 5 -17 9 -27
9 -29 0 -208 122 -279 191 -102 99 -158 182 -225 334 -52 120 -77 301 -62 455
21 208 117 419 260 571 53 56 169 145 223 171 22 10 62 30 88 44 101 51 208
72 378 73 137 1 169 -2 253 -24z m3086 -4 c80 -23 184 -72 274 -128 104 -66
297 -286 322 -366 3 -12 12 -29 18 -37 7 -8 19 -40 29 -70 9 -30 24 -77 33
-105 24 -71 26 -379 3 -445 -9 -25 -22 -63 -29 -85 -86 -275 -333 -522 -602
-604 -168 -51 -182 -53 -302 -54 -120 0 -172 7 -296 45 -237 71 -446 241 -562
458 -116 216 -149 459 -92 676 36 141 47 169 97 258 125 219 348 398 562 451
39 9 77 21 85 26 8 5 96 8 195 6 155 -2 192 -5 265 -26z m-5888 -3179 c7 -7
15 -57 20 -125 9 -146 44 -386 69 -477 25 -96 71 -237 90 -277 10 -24 19 -48
19 -55 1 -7 9 -31 20 -53 11 -22 19 -43 20 -46 0 -3 25 -52 56 -110 167 -313
386 -582 628 -774 21 -16 48 -38 60 -49 11 -10 32 -26 46 -34 14 -9 29 -22 33
-29 4 -7 25 -22 47 -33 21 -11 59 -34 85 -51 72 -48 247 -141 340 -179 166
-68 200 -80 295 -105 36 -10 85 -23 110 -31 81 -23 187 -44 228 -44 23 0 52
-4 66 -10 63 -24 503 -18 701 9 124 18 372 78 417 102 9 5 27 9 40 9 13 0 32
7 42 15 10 8 42 22 70 31 28 9 56 20 61 24 6 4 23 10 40 14 16 4 32 11 35 15
3 4 35 22 72 39 195 91 455 280 632 459 131 132 225 244 301 358 22 33 43 62
46 65 4 3 17 25 30 50 12 25 31 58 42 73 23 33 96 180 125 252 67 163 123 352
146 490 9 55 21 122 26 148 6 27 10 92 10 145 0 53 3 114 7 136 11 69 -14 67
769 64 l696 -3 19 -24 c18 -22 20 -38 18 -140 -1 -64 -6 -129 -11 -146 -5 -16
-13 -77 -18 -135 -11 -128 -34 -289 -55 -390 -9 -41 -21 -95 -26 -119 -5 -24
-13 -49 -18 -55 -5 -6 -11 -27 -14 -46 -2 -19 -9 -48 -15 -65 -6 -16 -23 -70
-37 -120 -15 -49 -31 -98 -37 -109 -5 -10 -25 -60 -43 -112 -18 -51 -40 -106
-48 -121 -8 -15 -21 -44 -30 -63 -97 -209 -215 -427 -303 -555 -18 -27 -48
-72 -66 -99 -18 -26 -46 -65 -63 -85 -16 -20 -41 -52 -54 -71 -34 -48 -164
-202 -231 -274 -48 -51 -85 -88 -243 -238 -41 -40 -208 -181 -228 -193 -9 -5
-43 -30 -76 -55 -145 -108 -253 -179 -373 -245 -36 -20 -83 -47 -105 -60 -71
-43 -329 -165 -349 -165 -8 0 -19 -7 -26 -15 -7 -8 -21 -15 -30 -15 -10 0 -31
-6 -47 -14 -48 -24 -139 -58 -213 -80 -30 -9 -84 -26 -120 -37 -87 -29 -215
-59 -248 -59 -15 -1 -38 -7 -52 -15 -14 -8 -39 -14 -57 -15 -17 0 -44 -5 -58
-10 -29 -11 -81 -18 -335 -47 -210 -24 -578 -24 -795 0 -273 30 -309 35 -338
46 -16 6 -43 11 -60 11 -18 0 -45 7 -61 15 -15 8 -42 15 -60 15 -17 0 -62 10
-101 21 -38 11 -86 24 -105 29 -19 4 -48 13 -65 19 -16 6 -79 28 -140 47 -60
20 -128 45 -149 55 -22 10 -44 19 -49 19 -4 0 -32 11 -60 24 -29 13 -63 27
-77 31 -14 4 -41 18 -60 30 -19 12 -64 35 -100 51 -36 16 -85 40 -110 55 -25
14 -79 46 -120 70 -41 24 -114 70 -162 101 -48 32 -92 58 -98 58 -5 0 -10 4
-10 10 0 5 -13 16 -29 25 -24 12 -55 34 -166 122 -111 88 -196 165 -325 293
-160 159 -194 195 -277 297 -26 32 -55 67 -65 77 -10 11 -18 23 -18 27 0 4
-13 22 -30 40 -26 29 -114 157 -212 309 -20 30 -52 87 -72 125 -21 39 -46 86
-56 105 -19 35 -128 264 -158 330 -8 19 -19 43 -23 52 -5 10 -9 27 -9 37 0 11
-4 22 -9 25 -9 6 -34 75 -76 211 -15 50 -33 110 -41 135 -23 76 -66 262 -75
325 -4 33 -12 85 -18 115 -23 131 -31 215 -37 370 -3 91 -7 174 -9 185 -4 31
12 65 37 75 14 5 314 8 725 7 548 -2 705 -5 715 -15z"/>
</g>
</svg>
